<svg xmlns="http://www.w3.org/2000/svg" viewBox="381.7 597.0 124.0 129.6" fill="#e3d6b4"><path d="M451.263,719.942c0,0-2.373-21.311-3.311-29.027c-0.938-7.716-5.558-15.181-2.362-20.514 c3.196-5.334,13.447-31.064,19.103-33.548c5.655-2.484,12.073-22.404,12.073-22.404s-20.135,23.964-26.621,35.95 c-3.883,7.175-3.866,6.148-3.866,6.148l6.561-43.374l-12.98,41.586c0,0-3.086-5.327-3.949-17.258 c-0.688-9.461-1.354-18.181-1.559-19.037c-0.458-1.938-6.757,1.599-6.757,1.599s2.304,19.789,3.654,29.475 c1.349,9.685-2.058,5.097-2.89,0.099c-1.022-6.13-6.171-20.364-7.99-21.823c-3.304-2.648-9.463-2.892-12.199-3.145 c-2.737-0.253,10.255,10.82,10.255,10.82l16.214,40.655l5.645,46.4l7.602-1.802"/><path d="M496.258,631.586c0,2.867-11.273,5.192-25.182,5.192c-13.906,0-25.182-2.325-25.182-5.192 c0-2.868,11.275-5.193,25.182-5.193C484.984,626.393,496.258,628.718,496.258,631.586z"/><path d="M501.751,624.057c0,5.255-9.421,9.513-21.042,9.513c-11.621,0-21.041-4.258-21.041-9.513 c0-5.255,9.42-9.514,21.041-9.514C492.33,614.543,501.751,618.802,501.751,624.057z"/><path d="M480.71,619.778c0,5.256-9.421,9.516-21.042,9.516c-11.621,0-21.041-4.26-21.041-9.516 c0-5.254,9.42-9.511,21.041-9.511C471.289,610.268,480.71,614.524,480.71,619.778z"/><path d="M457.146,618.304c0,5.256-9.42,9.513-21.042,9.513c-11.62,0-21.04-4.257-21.04-9.513 c0-5.254,9.42-9.513,21.04-9.513C447.727,608.791,457.146,613.05,457.146,618.304z"/><path d="M436.105,614.543c0,5.255-9.42,9.514-21.041,9.514c-11.621,0-21.042-4.259-21.042-9.514 c0-5.255,9.421-9.514,21.042-9.514C426.685,605.029,436.105,609.288,436.105,614.543z"/><path d="M480.709,610.477c0,5.254-12.485,9.513-27.888,9.513c-15.403,0-27.887-4.259-27.887-9.513 c0-5.255,12.483-9.514,27.887-9.514C468.224,600.963,480.709,605.222,480.709,610.477z"/><path d="M454.733,628.332c0,2.363-11.275,4.277-25.183,4.277c-13.906,0-25.181-1.914-25.181-4.277 c0-2.36,11.274-4.275,25.181-4.275C443.458,624.057,454.733,625.972,454.733,628.332z"/><path d="M436.105,624.057c0,2.362-11.273,4.275-25.182,4.275c-13.906,0-25.18-1.913-25.18-4.275 s11.273-4.278,25.18-4.278C424.832,619.778,436.105,621.694,436.105,624.057z"/></svg>
