<svg xmlns="http://www.w3.org/2000/svg" viewBox="8 16 204 184" fill="#e3d6b4"><path d="M93 200 C95 168 90 142 98 120 L105 120 C112 144 108 170 107 200 Z"/><path d="M98 122 L44 84 L50 80 L103 119 Z"/><path d="M100 121 L80 80 L86 80 L104 120 Z"/><path d="M102 120 L103 78 L109 78 L108 120 Z"/><path d="M104 120 L132 80 L138 82 L107 121 Z"/><path d="M106 120 L162 82 L168 86 L109 122 Z"/><ellipse cx="110" cy="64" rx="99" ry="17"/><ellipse cx="55" cy="58" rx="46" ry="22"/><ellipse cx="165" cy="58" rx="46" ry="22"/><ellipse cx="85" cy="56" rx="42" ry="24"/><ellipse cx="140" cy="56" rx="42" ry="24"/><ellipse cx="110" cy="50" rx="58" ry="30"/></svg>
