<svg xmlns="http://www.w3.org/2000/svg" viewBox="177.5 357.1 107.5 110.9" fill="#3b2a1c"><path d="M275.41,431.88l4.55,3.59s-8.13-11-16.99-14.95c-8.85-3.95-24.52,4.19-33.97,1.68-9.45-2.51-19.02,2.27-23.92,0-4.87-2.26-3.37-16.04-3.35-16.25.49-.49,1.15-.86,2.15-.98,2.87-.36,0-5.5,0-5.5,0,0,6.22.72,8.49-10.77,0,0-6.58,2.99-9.33,7.78l-.72-.36-2.15-33.97-.72,33.97h-4.06l-.72-33.97-2.15,33.97-.72.36c-2.75-4.79-9.33-7.78-9.33-7.78,2.27,11.48,8.49,10.77,8.49,10.77,0,0-2.87,5.14,0,5.5.52.06.92.21,1.29.38-.86,32.76,11.87,43.64,11.87,43.64l4.31-8.61v11.96l2.87-1.79c-1.32,9.81,2.75,12.5,2.75,12.5l.24-12.62s2.08,11.03,2.03,11.6c-.51,6.33,4.43-19.14,4.43-19.14-.72,9.81,4.31,13.4,4.31,13.4l.12-9.45,2.12,7.86c-.98-5.33,2.9-17.07,2.9-17.07-1.55,11.61,2.51,18.54,2.51,18.54l3.47-6.82s1.43,6.22,1.67,6.94c1.82,5.43,4.55-22.97,4.55-22.97,3.35,8.73.72,21.41.72,21.41l3.11-7.42,2.27,7.9,2.39-7.78-.6,7.3c5.86-3.35,7.3-21.18,7.3-21.18,2.87,8.49-2.03,23.57-2.03,23.57,10.17-3.95,11.72-23.92,11.72-23.92,3.11,4.79,2.75,11.72,2.75,11.72,3.83-6.34,2.87-12.92,2.87-12.92l2.63,8.25-.12-8.37Z"/></svg>
