<svg xmlns="http://www.w3.org/2000/svg" viewBox="270.7 360.9 86.2 56.7" fill="#3b2a1c"><path d="M277.24,378.6s-2.39,18.07,8.26,20.22c0,0,.24-1.68,3.83-2.39,3.59-.72,2.99.24,2.99.24,0,0,10.29-24.41,14.72-26.56,4.43-2.15,9.69,2.03,14-1.2,4.31-3.23,14.48-6.22,24.53,4.43,0,0,4.31.36,6.1-2.15,0,0,2.03,9.21-5.98,4.43,0,0-1.67,8.02-5.26,9.33-3.59,1.32,4.07,8.74,5.74,9.09,0,0-.36,10.17.12,14.24l-1.8-4.67-.24,4.67-.96-9.09-1.32,8.38-.96-5.15-.96,1.68.36-8.26s-6.58-2.15-5.74-9.81c0,0-9.09,1.67-18.91.36,0,0-3.11,8.38-2.51,11.49l-1.56-2.15-.96,13.16-1.2-8.14-.72,3.95-.72-6.22s-1.32,3.47-1.32,2.99.72-11.49.72-11.49c0,0-5.98,6.22-12.56,9.33,0,0,2.39,4.91-.72,6.94,0,0-1.56,3.11-1.92,5.02-.36,1.92-.48-2.27-.48-2.27l-.96,2.77-.36-6.24-2.15,7.06-1.2-5.02s-3.79.51-3.95-4.55c0,0-11.61-7.06-5.98-24.41Z"/></svg>
