<svg xmlns="http://www.w3.org/2000/svg" viewBox="439.3 83.8 229.9 151.4" fill="#3b2a1c"><path d="M497.6,95.83c-4.04-1.77-29.04,14.85-34.54,44.13,0,0-9.69,2.64-18.72,1.54,0,0,5.06,3.52,10.79,4.18,0,0-5.29,3.52-8.81,2.64,0,0,6.16,2.86,13.21,2.2,0,0-3.96,25.98,5.06,32.37,9.03,6.39,28.41,3.3,22.9-11.23,0,0-1.76.66-1.98,1.98,0,0-1.38-3.49-2.75-3.49,0,0,.21,6.77-1.12,8.87-1.33,2.1-11.68.93-11.17-11.92.51-12.86,2.67-19.24,12.34-20.98,0,0,5.35-7.44,18-6.24,0,0,.72,7.48,2.67,11.08,0,0,10.7-6.17,13.89-3.7,3.19,2.47,1.34,13.68,1.34,13.68,0,0-23.35,37.03-17.38,62.13,0,0-1.44-5.55,2.47-10.29,0,0-1.03,9.88,1.44,12.76,0,0,1.85-10.9,4.73-13.58,0,0-1.23,7.61,1.23,9.67l3.5-9.88,1.65,2.06s1.85-15.64,5.55-19.34c3.7-3.7,13.17-14.2,13.17-14.2,0,0,9.87,30.04,14.4,36,0,0,.21-5.97,2.47-10.49,0,0-.82,16.87,0,19.75l5.14-11.32-1.23,12.34,2.26-1.85,1.85,5.55s6.38-8.64,4.94-17.69c0,0-5.14-5.76-4.94-9.67.21-3.91,1.23-33.74,1.23-33.74,0,0,9.26,8.02,16.25,8.43,7,.41,16.87.62,16.87.62,0,0,12.55,12.34,12.34,18.31-.21,5.97-7,28.39-7,28.39,0,0,6.38-5.55,8.02-10.7,0,0-1.44,7.82-3.29,9.46l3.29-3.5v4.73s6.34-6.9,5.88-11.11c-.02-.21-.06-.42-.12-.62-1.23-4.11,4.32,5.76,1.65,12.55l4.53-6.99s3.7-18.52,0-29.63c0,0,18.52,5.14,19.13,36l1.03-2.88,1.03,5.14,4.53-9.05,2.26,8.43,1.65-4.32,2.47,1.65v-5.35s-6.58-8.85-8.02-19.34c-1.44-10.49-.82-24.89-.82-24.89,0,0,9.26,14.81,21.4,17.9,0,0-18.52-13.17-23.04-39.91-4.53-26.75-28.6-55.55-45.47-54.11-16.87,1.44-25.1,4.42-44.03-4.68-18.93-9.1-20.98-3.24-26.33,0-5.35,3.24-22.99,4.22-27.81,2.11Z"/></svg>
