<svg xmlns="http://www.w3.org/2000/svg" viewBox="665.0 174.1 107.3 56.7" fill="#3b2a1c"><path d="M671.81,186.87s2.14,9.71,7.24,9.38c5.1-.33,12.18-12.18,17.28-12.01,5.1.16,3.62,1.81,3.62,1.81,0,0,8.89-10.04,15.8-5.93,6.91,4.11,2.47,7.57,2.47,7.57,0,0,15.14-5.93,24.03-2.47,8.89,3.46,13.99,6.91,17.94,16.95,3.95,10.04.99,9.71,7.08,15.31,0,0-6.42.33-10.53-15.31,0,0-3.79,5.76-1.98,10.37,1.81,4.61-2.3,13.33-2.3,13.33l.49-9.38s-6.28,8.56-12.35,9.38c0,0,5.61-5.1,5.61-13.33,0,0-3.62,7.57-7.24,9.05l1.64-5.6-4.6,4.11-1.15-4.77-1.81,4.28s1.81-8.06-.99-13.17c0,0-.99,15.31-10.37,17.94l-.16-8.56-3.79,6.91-.66-11.19s-1.64,10.04-8.06,12.18c0,0,1.48-6.91,1.32-6.25-.17.66-2.31,4.11-6.75,5.6,0,0,.33-8.23,8.07-15.31,0,0-2.8,1.15-6.42,3.46,0,0,0-7.41-5.1-8.72-5.1-1.32-9.55,4.28-13.83,3.13-4.28-1.15-1.32-3.13-1.32-3.13,0,0-10.86,4.28-14.98-14.48,0,0,1.65.99,1.81-1.15Z"/></svg>
