<svg xmlns="http://www.w3.org/2000/svg" viewBox="562.8 524.6 176.2 216.2" fill="#3b2a1c"><path d="M729.47,667.81c-.22-.44-.44-.91-.64-1.43-.32-.81-.61-1.71-.88-2.67-.12-.48-.25-.98-.39-1.48-.11-.51-.22-1.04-.33-1.57-.2-1.07-.4-2.15-.56-3.3-.16-1.15-.32-2.32-.48-3.49-.14-1.19-.4-2.36-.61-3.53-.27-1.15-.52-2.3-.85-3.39-.15-.55-.31-1.09-.5-1.61-.18-.52-.34-1.04-.54-1.53-.37-.99-.79-1.91-1.2-2.75-.32-.64-.64-1.21-.97-1.74-1.51-6.22-6.38-13.34-14.63-11.93-3.66.62-20.39.67-29.03-9.78-15.66-18.94-12.07-13.59-25.99-18.59-13.92-5-45.89-50.67-49.26-54.37-3.37-3.7-6.63-2.28-7.94-3.04-1.31-.76-.98-2.83,0-5.33,0,0,2.92,1.5,3.28-1.68.36-3.17-6.78-7.06-8.88-3.81-2.1,3.25,1.27,4.52,1.27,4.52-1.03,5.28-4.24,5.13-4.24,5.13-7.72.85-2.88,3.74-14.1,13.81-11.22,10.07,3.45,9.78,6.62,6.91,3.16-2.88,6.04-2.88,6.04-2.88,6.33,6.33,14.67.86,14.67.86,10.36,38.27,44.88,68.76,44.88,68.76-7.77,23.02,2.01,34.52,2.01,34.52,0,16.11-15.25,27.91-15.25,27.91,2.59,9.49-2.59,25.03-2.59,25.03-4.6,14.1,3.74,9.21,5.47,8.34,1.73-.86-.58-5.18-.58-5.18,5.18-4.89,6.04-26.47,6.04-26.47,3.74-3.74,16.11-14.38,16.11-14.38,8.63,17.26,8.92,52.94,8.92,52.94l2.01-3.17,2.01,8.34.86-5.18,1.44,3.16c1.15-15.25-6.04-63.87-6.04-63.87,0,0,15.25,1.15,23.02-4.89,7.77-6.04,10.07,2.01,10.07,2.01-1.44,19.28,6.91,27.04,6.91,27.04l-.86,35.1,2.3-2.01.58,6.62,2.01-2.88,1.73,2.88,1.15-34.52,4.89,2.59c0,13.23,4.6,31.93,4.6,31.93l1.73-4.89,2.01,4.89v-4.89l3.31,4.89c-6.47-17.55-4.46-41.43-4.46-41.43-9.37-8.07-5.25-32.2-5.16-37.72.08-5.52,1-6.41,2.04-7.01.42-.25.76-.67,1-1.23,0,0,0,.02.01.03.22.46.43.94.62,1.44.42.98.76,2.04,1.13,3.1.31,1.09.68,2.18.93,3.31.28,1.14.56,2.28.84,3.4.28,1.12.61,2.25.94,3.32.17.53.35,1.05.51,1.56.19.5.38.99.56,1.47.39.95.78,1.83,1.2,2.63.27.53.55.99.83,1.43h0s-2.09,3.31,1.83,6.76l-.22-1.88s1.35,2.44,2.92,3.84c0,0,2.41-9.09-4.15-8.98Z"/></svg>
